<?xml version="1.0" encoding="UTF-8"?>
<svg id="Capa_1" data-name="Capa 1" xmlns="http://www.w3.org/2000/svg" viewBox="0 0 512 512">
  <defs>
    <style>
      .cls-1 {
        fill: #362c24;
      }
    </style>
  </defs>
  <path class="cls-1" d="M165.7,133.2v-27.1C165.7,47.8,206.4,0,256,0s90.3,47.8,90.3,106.1v27.1h61.7c31,0,56.1,25.1,56.1,56.1l.3,250.7c0,31-25.1,56.1-56.1,56.1H104.2c-31,0-56.1-25.1-56.1-56.1L48,189.3c0-31,25.1-56.1,56.1-56.1h61.7ZM312.6,133.2v-27.1c0-36-25.4-65.2-56.6-65.2s-56.6,29.3-56.6,65.2v27.1h113.1ZM406,173.1H106v32.6c0,9.9,8,18,18,18s18-8,18-18v-32.6h33.8v32.6c0,9.9,8,18,18,18s18-8,18-18v-32.6h88.4v32.6c0,9.9,8,18,18,18s18-8,18-18v-32.6h33.8v32.6c0,9.9,8,18,18,18s18-8,18-18v-32.6ZM344.8,421.3c0-9.9-8-18-18-18H185.2c-9.9,0-18,8-18,18s8,18,18,18h141.6c9.9,0,18-8,18-18Z"/>
</svg>
